<?xml version="1.0" encoding="UTF-8" standalone="no"?>
<!-- Created with Inkscape (http://www.inkscape.org/) -->

<svg
   version="1.1"
   id="svg272"
   width="960"
   height="200"
   viewBox="0 0 960 200"
   sodipodi:docname="banner.svg"
   inkscape:version="1.2.2 (b0a8486541, 2022-12-01)"
   inkscape:export-filename="banner.png"
   inkscape:export-xdpi="96"
   inkscape:export-ydpi="96"
   xmlns:inkscape="http://www.inkscape.org/namespaces/inkscape"
   xmlns:sodipodi="http://sodipodi.sourceforge.net/DTD/sodipodi-0.dtd"
   xmlns="http://www.w3.org/2000/svg"
   xmlns:svg="http://www.w3.org/2000/svg">
  <sodipodi:namedview
     id="namedview6"
     pagecolor="#ffffff"
     bordercolor="#000000"
     borderopacity="0.25"
     inkscape:showpageshadow="2"
     inkscape:pageopacity="0.0"
     inkscape:pagecheckerboard="0"
     inkscape:deskcolor="#d1d1d1"
     showgrid="false"
     inkscape:zoom="0.77491103"
     inkscape:cx="548.45006"
     inkscape:cy="252.93226"
     inkscape:window-width="1920"
     inkscape:window-height="1053"
     inkscape:window-x="0"
     inkscape:window-y="0"
     inkscape:window-maximized="1"
     inkscape:current-layer="svg272" />
  <defs
     id="defs276" />
  <path
     style="fill:#c5becb;fill-opacity:1;stroke:#2b2b2b;stroke-width:2.74433;stroke-dasharray:none;stroke-opacity:1"
     d="m 408.71247,140.78931 c -3.54538,-1.40117 -7.43129,-4.10306 -10.9231,-7.59488 l -5.41999,-5.41997 -4.18018,4.43817 c -4.78719,5.08264 -8.51215,7.20686 -15.30863,8.72997 -5.57757,1.24996 -13.72902,-0.069 -19.9473,-3.22759 -5.49511,-2.79128 -12.25916,-10.09994 -14.30492,-15.45668 -0.95653,-2.50465 -2.19219,-4.40288 -2.74591,-4.21831 -0.55369,0.18456 -1.63594,2.79419 -2.40497,5.79916 -2.57806,10.07376 -8.32326,17.09162 -13.99213,17.09162 -3.0939,0 -8.01759,-3.87234 -10.46852,-8.23315 -1.8492,-3.29022 -2.52268,-6.26898 -2.85684,-12.63583 -0.41858,-7.97479 -0.53942,-8.33074 -2.82822,-8.33074 -2.33002,0 -2.39095,0.21911 -2.39095,8.59864 0,6.57108 -0.46823,9.51646 -1.98569,12.49091 -2.39554,4.69566 -6.49051,8.11017 -9.72639,8.11017 -5.53663,0 -12.83106,-10.10741 -15.92171,-22.06168 l -1.14823,-4.44115 -3.34453,5.212 c -10.12611,15.78018 -27.94279,22.6671 -45.99734,17.77995 -16.87028,-4.56657 -30.55082,-19.7647 -32.43794,-36.03634 -1.95452,-16.852678 4.56667,-32.944588 16.57364,-40.897678 21.80185,-14.44095 57.74027,-5.3791 57.74027,14.55917 0,2.40307 -1.04878,6.19157 -2.513,9.07769 -1.38215,2.72434 -2.5149,5.18587 -2.51722,5.47006 -0.007,0.83963 10.827,9.04873 11.94193,9.04873 0.56201,0 1.19956,-1.69913 1.41679,-3.77583 0.3835,-3.66625 0.4001,-3.64433 0.57227,0.75516 0.39062,9.982458 3.25213,28.653538 4.73925,30.923158 2.30584,3.51916 6.21242,4.73643 9.1092,2.83837 2.40529,-1.57599 3.55817,-4.71312 5.52357,-15.03024 2.53033,-13.2826 12.83349,-13.86144 14.51805,-0.81565 1.42798,11.05885 1.82096,12.59976 3.68981,14.46861 1.3964,1.3964 3.04012,1.87524 5.6831,1.65555 3.08954,-0.2568 4.02857,-0.90515 5.55186,-3.83319 1.52882,-2.93866 1.75584,-5.1968 1.36661,-13.59298 -0.55972,-12.07296 -2.45946,-17.405668 -7.84189,-22.012838 -4.66929,-3.99674 -9.76808,-5.67654 -17.23026,-5.67654 h -5.5283 l -0.70123,-9.28904 c -0.41513,-5.49904 -1.47802,-11.04507 -2.60507,-13.59298 -1.70622,-3.85719 -2.26127,-4.30394 -5.34725,-4.30394 -7.1844,0 -10.26749,6.24529 -11.68103,23.66185 l -0.8172,10.06887 -0.13527,-12.08264 c -0.18976,-16.94804 2.29694,-24.26005 9.24381,-27.18099 4.40281,-1.85126 8.16696,-0.18457 11.92756,5.28128 3.51674,5.11144 7.82816,16.42221 7.86061,20.62191 0.0167,2.17462 0.60038,2.8759 2.79015,3.35284 14.04943,3.05997 21.40507,7.97113 25.92735,17.311 1.66137,3.431198 3.52867,6.250018 4.14956,6.264068 0.62088,0.014 1.41842,-2.12672 1.77232,-4.757208 0.35389,-2.63049 1.9955,-7.14085 3.648,-10.02302 13.05698,-22.77284 53.10193,-7.89386 57.01512,21.184378 l 0.65513,4.8683 3.62708,-0.68045 c 5.22342,-0.9799 5.34753,-1.20293 3.11029,-5.58831 -3.2557,-6.38171 -5.30334,-15.900178 -4.69288,-21.814898 1.429,-13.84575 14.15347,-18.85326 32.87739,-12.93837 13.75303,4.34458 17.84023,3.47261 28.4562,-6.07086 4.24798,-3.81881 7.54409,-4.93958 11.94089,-4.06021 6.69352,1.33871 18.80413,12.45871 22.99343,21.11269 4.31232,8.90805 1.67838,16.420978 -6.81449,19.437378 l -4.98312,1.76986 -0.39582,11.12748 c -0.29235,8.21871 -0.8763,12.04868 -2.23386,14.65159 -3.1308,6.00267 -5.60167,8.05509 -9.69733,8.05509 -7.29153,0 -11.64128,-5.96388 -15.06777,-20.65916 -3.37385,-14.46949 -6.72575,-18.60944 -15.06709,-18.60944 -2.60195,0 -4.98495,0.25412 -5.29555,0.56471 -0.3106,0.3106 0.97318,3.51522 2.85285,7.12139 5.25334,10.07862 4.56831,19.18114 -1.98638,26.39432 -6.00357,6.60671 -18.22514,8.82627 -27.78859,5.04669 z m 15.47664,-9.31482 c 10.49888,-6.15276 11.89288,-16.0762 3.83432,-27.29506 -10.12736,-14.098968 -10.25296,-14.599868 -3.66151,-14.599868 3.78714,0 5.15163,-0.54319 7.65637,-3.04792 2.80376,-2.80377 2.93288,-3.22721 1.61172,-5.28616 -0.78992,-1.23104 -3.44238,-3.29004 -5.89432,-4.57558 -3.59621,-1.88546 -5.49902,-2.23822 -9.84227,-1.82468 -16.60717,1.58124 -21.9534,20.35359 -9.21444,32.354868 1.76348,1.66137 4.53345,4.68419 6.15548,6.71739 l 2.94917,3.69671 -7.15173,-0.17261 c -6.91827,-0.16699 -7.24917,-0.0636 -10.13718,3.16751 -4.33524,4.85029 -2.80011,8.958 4.65891,12.46632 5.33206,2.50791 13.14561,1.85077 19.03548,-1.60092 z m -183.30169,-0.21596 c 13.7156,-4.67336 23.86753,-22.85798 19.23061,-34.446788 -2.02866,-5.0701 -5.56356,-7.2416 -11.73705,-7.21007 -4.44911,0.0228 -11.98125,2.8729 -15.13521,5.72719 -0.97908,0.88606 -1.78015,2.69666 -1.78015,4.02355 0,2.878948 4.90407,5.330458 10.66327,5.330458 3.31138,0 3.54139,0.16717 2.29783,1.66989 -1.71852,2.07669 -8.72095,5.32656 -11.54086,5.35621 -2.47791,0.0261 -4.24582,-3.30793 -5.11439,-9.64488 -1.15258,-8.408988 2.78735,-12.771668 12.89898,-14.283018 5.25727,-0.78578 5.33086,-0.84168 2.88216,-2.18897 -3.39203,-1.86633 -9.87589,-1.73603 -13.75183,0.27633 -4.33426,2.25032 -7.39714,7.51158 -7.39714,12.70643 0,4.989658 1.23163,7.765178 4.87756,10.991698 l 2.67409,2.36646 -3.91696,-0.56401 c -19.03243,-2.74053 -19.50002,-27.742908 -0.61403,-32.832738 1.93826,-0.52238 8.56362,-1.37611 14.72303,-1.89722 13.91383,-1.17714 15.48358,-1.91547 15.48358,-7.28266 0,-8.82741 -5.23611,-13.0041 -16.30254,-13.0041 -11.93798,0 -28.70753,6.16457 -36.89749,13.5637 -6.6336,5.99307 -10.20237,18.29061 -8.26666,28.48594 1.56011,8.217108 5.80859,16.070488 12.09389,22.355778 10.59466,10.59467 23.16606,14.40675 34.62931,10.50082 z m 134.63427,-3.04977 c 7.7295,-4.20692 10.41145,-8.8227 10.8604,-18.69115 0.31549,-6.93518 0.0322,-8.56707 -2.32204,-13.379078 -4.53939,-9.27817 -13.63925,-15.62095 -22.41108,-15.62095 -4.64657,0 -12.11074,2.57811 -15.95639,5.51133 -8.53396,6.50917 -10.70101,20.091948 -4.97974,31.212318 7.06629,13.73457 21.41713,18.25623 34.80885,10.96753 z m -17.33323,-14.98387 c -5.95369,-3.23434 -5.38376,-13.648718 0.83374,-15.235088 4.52138,-1.15363 6.70552,-0.63452 9.12834,2.169558 3.79955,4.3975 2.92424,10.65867 -1.83407,13.1193 -3.49054,1.80502 -4.72143,1.79688 -8.12801,-0.0538 z m 6.92692,-3.03169 c 1.26935,-0.88908 1.95558,-2.16343 1.62665,-3.02068 -0.84212,-2.19447 -1.72961,-1.82732 -3.71748,1.5379 -1.96797,3.33148 -1.26267,3.83166 2.09083,1.48278 z m 108.42532,14.53684 c 1.15333,-2.88246 1.59157,-7.43773 1.59157,-16.54345 0,-12.358728 0.0374,-12.565778 2.26551,-12.569468 3.19077,-0.005 8.49856,-3.46934 9.33005,-6.08909 0.95869,-3.02056 -2.07489,-6.94793 -7.51527,-9.72949 -2.39819,-1.22615 -5.17227,-3.56446 -6.16461,-5.19625 -0.99236,-1.63179 -2.71947,-3.25736 -3.83802,-3.61238 -3.58632,-1.13825 -9.84903,1.36375 -14.9954,5.99078 -9.98875,8.98074 -9.47757,16.39056 1.28345,18.60443 l 3.02065,0.62145 0.11681,11.034628 c 0.0643,6.06907 0.64153,12.93602 1.28289,15.25991 2.49214,9.03009 10.38441,10.32146 13.6224,2.22893 z"
     id="path708"
     sodipodi:nodetypes="sscsscssssssssssscsssssscsscsssssssssscsssscsssscscssscsssssssscsssssssssssssssssscscsssscssssssssssscssssssssssscssssssssssscsssscsssssscsss" />
  <path
     d="m 724.25043,151.44682 c -4.80355,-2.92906 -8.15155,-10.84481 -9.61646,-22.73638 l -1.24036,-10.06887 -0.84828,4.95151 c -1.11704,6.52047 -4.06208,10.45421 -9.69066,12.94398 -13.3446,5.90296 -39.60936,-2.18508 -48.92158,-15.06503 -3.2388,-4.47967 -5.56665,-5.5292 -5.56665,-2.50977 0,4.34066 -3.30474,12.42323 -6.43779,15.74525 -5.56544,5.90107 -11.37617,4.35999 -16.50698,-4.37785 -2.43815,-4.15225 -2.7627,-5.83036 -3.08805,-15.96735 l -0.36357,-11.3275 h -3.21172 -3.21171 l -1.17725,9.31371 c -1.30487,10.32332 -4.07964,19.41167 -7.31301,23.95252 -3.13831,4.40732 -7.53283,4.12229 -12.24308,-0.79412 -7.50645,-7.83497 -9.2977,-15.26573 -8.7038,-36.106688 0.46549,-16.33532 1.77207,-21.02975 6.89246,-24.76431 10.97674,-8.0059 43.24985,4.38852 51.39223,19.73705 1.35218,2.54886 2.91237,4.63259 3.4671,4.63053 0.55474,-0.002 1.82312,-1.98469 2.81862,-4.40577 2.5471,-6.1947 7.63787,-11.7668 13.93892,-15.25685 4.86108,-2.69246 6.29361,-2.98857 14.45769,-2.98857 7.36986,0 9.92226,0.42393 13.66906,2.27029 10.26745,5.05963 15.62082,11.73789 19.16556,23.908768 l 1.75952,6.04134 0.0717,-5.45543 c 0.17777,-13.519658 4.21709,-25.340368 9.74233,-28.510068 4.88288,-2.80117 13.41341,-4.01089 20.37624,-2.88957 13.97666,2.25088 25.55888,11.69759 29.33623,23.92727 2.44398,7.912628 2.53574,11.386358 0.48349,18.297098 -2.06223,6.94436 -6.01116,11.21139 -15.911,17.19275 -9.18223,5.54778 -11.15731,7.41421 -15.63473,14.77458 -4.5933,7.55088 -11.21852,9.60219 -17.8845,5.53748 z m 7.38041,-12.6675 c 1.24327,-2.21516 2.55045,-5.94203 2.9048,-8.28195 0.69726,-4.60419 0.1341,-4.30599 10.76543,-5.70032 8.0841,-1.06024 18.35045,-8.58752 20.9161,-15.33564 4.30746,-11.329528 -4.10991,-25.103848 -19.70319,-32.242708 -12.0442,-5.51401 -22.68059,-2.86166 -26.80905,6.68526 -2.55276,5.90318 -2.72242,30.891508 -0.33179,48.866818 1.41008,10.60239 7.89515,13.78126 12.2577,6.00854 z m 3.88843,-32.94787 c -2.15426,-3.07566 -2.04132,-10.112548 0.19463,-12.127558 3.11753,-2.80949 6.62042,-3.0726 9.60901,-0.72178 2.21715,1.74402 2.72535,2.9614 2.72535,6.5286 0,3.537728 -0.51253,4.788008 -2.653,6.471698 -3.52683,2.77421 -7.87366,2.70777 -9.87599,-0.15096 z m 9.00489,-2.79664 c 1.76886,-1.95458 1.75865,-2.01378 -0.34738,-2.01378 -1.49857,0 -2.16983,0.62299 -2.16983,2.01378 0,1.10759 0.15631,2.01379 0.34738,2.01379 0.19106,0 1.16748,-0.9062 2.16983,-2.01379 z m -140.23125,14.31382 c 0.59657,-12.58651 2.73823,-18.247878 7.67693,-20.293558 7.75586,-3.21258 10.8189,0.54748 12.14258,14.905798 1.05165,11.40745 3.02841,15.23925 7.86168,15.23925 6.51303,0 9.4138,-8.79003 7.53491,-22.83265 -2.49042,-18.613118 -10.19779,-24.501718 -34.16401,-26.101958 -11.6087,-0.77513 -12.14865,-0.56626 -15.70331,6.07453 -1.85211,3.46012 -2.1919,5.73382 -2.1919,14.66723 0,11.418248 1.34797,16.412168 6.11812,22.666148 2.13238,2.79569 7.49266,6.43186 9.59776,6.51066 0.33691,0.0125 0.84418,-4.86334 1.12724,-10.83545 z m 92.85676,8.78488 c 4.93437,-2.41018 6.95673,-7.11182 6.85543,-15.93784 -0.11658,-10.15708 -2.97249,-17.769598 -8.88434,-23.681448 -13.76279,-13.76279 -36.8344,-7.6627 -42.33304,11.1928 -4.12261,14.136978 3.95909,26.149378 19.82121,29.461648 6.31798,1.3193 20.98723,0.70052 24.54074,-1.03516 z m -26.17402,-17.51504 c -3.17951,-3.1795 -3.13491,-6.65445 0.13525,-10.540848 1.9072,-2.26656 3.4683,-3.09791 5.8173,-3.09791 5.07222,0 7.68617,2.43197 7.68617,7.151078 0,5.07479 -3.49238,8.95912 -8.05509,8.95912 -1.96179,0 -4.02575,-0.91354 -5.58363,-2.47144 z m -130.01137,27.85305 c -12.81118,-4.57365 -18.7999,-14.99453 -13.09822,-22.79205 1.15089,-1.57396 1.26001,-1.38268 0.91196,1.59866 -1.59846,13.69194 28.10795,17.90325 39.72366,5.63138 4.37831,-4.62563 5.35514,-6.95776 5.35514,-12.78503 0,-7.94263 -2.86413,-12.602138 -15.13014,-24.614358 -6.07691,-5.95119 -11.04893,-11.48731 -11.04893,-12.30251 0,-1.25886 1.73792,-1.37828 11.5345,-0.7926 9.85131,0.58897 11.90835,0.44465 14.09641,-0.98903 2.75515,-1.80523 3.23507,-4.47937 1.43423,-7.99145 -7.8468,-15.30316 -31.2327,-15.44007 -40.63149,-0.23789 -2.52862,4.08996 -3.04344,5.97058 -3.02469,11.04916 0.0336,9.11558 3.56573,14.7947 15.77887,25.3703 5.43078,4.702628 9.87416,8.978388 9.87416,9.501708 0,0.52329 -1.19592,0.95145 -2.65759,0.95145 -3.36819,0 -15.25674,-9.456708 -20.04448,-15.944288 -12.34794,-16.73199 -6.56358,-38.8221 11.55393,-44.12368 19.16931,-5.60936 43.70234,10.93636 37.2414,25.11656 -2.36253,5.18521 -11.84765,7.33507 -21.06547,4.77462 l -3.51746,-0.97704 3.5241,3.071 c 13.91715,12.12779 16.83987,15.13254 19.06758,19.6028 2.92109,5.861668 3.73842,13.385898 2.1107,19.430798 -1.57615,5.85341 -8.6721,13.34916 -15.42517,16.29427 -7.26428,3.16807 -19.44413,3.69869 -26.563,1.15722 z m -5.55796,-28.08318 c 0.72684,-0.29088 1.59529,-0.2551 1.92987,0.0795 0.33458,0.33458 -0.26012,0.57253 -1.32154,0.52883 -1.17297,-0.0483 -1.41156,-0.2869 -0.60833,-0.60833 z m 5.47494,-1.04026 c 1.52292,-0.23071 4.01497,-0.23071 5.53789,0 1.52291,0.23069 0.27689,0.41946 -2.76894,0.41946 -3.04584,0 -4.29186,-0.18877 -2.76895,-0.41946 z"
     style="fill:#c5becb;fill-opacity:1;stroke:#2b2b2b;stroke-width:2.74433;stroke-dasharray:none;stroke-opacity:1"
     id="path765" />
</svg>
