<svg xmlns="http://www.w3.org/2000/svg" xmlns:svg="http://www.w3.org/2000/svg" id="svg272" width="630" height="563.79" version="1.1" viewBox="0 0 630 563.79"><rect style="fill:#2b2b2b;fill-opacity:1;stroke:none;stroke-width:4.47286;stroke-dasharray:none;stroke-opacity:1;paint-order:markers stroke fill" id="rect7104" width="630" height="563.79" x="0" y="0"/><g id="g278" transform="scale(2.0063694)"><path style="fill:#c5becb;fill-opacity:1;stroke:none" id="path15962" d="m 272.26753,212.95711 c -6.679,4.36 -14.606,2.511 -21.874,5.014 -6.2,2.135 -9.606,8.336 -16.152,9.957 -39.977,9.902 -80.589,0.029 -120.974,0.029 -19.425895,0 -48.913895,4.623 -63.999995,-9 9.3364,-9.762 20.604,-15.901 26.2127,-29 17.1685,-40.097 9.373,-96.600704 39.278295,-130.876204 26.007,-29.807004 85.832,-25.221404 105.708,9.8762 25.944,45.811004 4.289,111.546004 51.801,144.000004 z"/></g><path style="fill:#c5becb;fill-opacity:1;stroke:#2b2b2b;stroke-width:4.61465;stroke-dasharray:none;stroke-opacity:1" id="path708" d="m 435.16732,233.21029 c -5.96164,-2.3561 -12.49587,-6.89938 -18.36743,-12.77096 l -9.11383,-9.1138 -7.02907,7.46288 c -8.04976,8.54657 -14.31336,12.11849 -25.7418,14.67964 -9.3788,2.10183 -23.08565,-0.11597 -33.54183,-5.42727 -9.24015,-4.6936 -20.61404,-16.98326 -24.05404,-25.99075 -1.60842,-4.21161 -3.6862,-7.40354 -4.6173,-7.09317 -0.93105,0.31034 -2.75087,4.69849 -4.04401,9.75141 -4.33507,16.93925 -13.99575,28.73994 -23.52808,28.73994 -5.20245,0 -13.48175,-6.51142 -17.60304,-13.84423 -3.10947,-5.53257 -4.24194,-10.54143 -4.80385,-21.24743 -0.70385,-13.40977 -0.90704,-14.00831 -4.7557,-14.00831 -3.91799,0 -4.02044,0.36843 -4.02044,14.4588 0,11.04941 -0.78734,16.00213 -3.33898,21.00373 -4.02815,7.89587 -10.91393,13.63744 -16.35514,13.63744 -9.30996,0 -21.57571,-16.99584 -26.77271,-37.09721 l -1.93077,-7.46789 -5.6239,8.76409 c -17.02728,26.53473 -46.98642,38.11523 -77.34554,29.89738 C 94.212108,219.86579 71.207971,194.3098 68.034741,166.9487 64.748176,138.61054 75.713707,111.55164 95.903686,98.178345 132.56398,73.895579 192.99522,89.133265 192.99522,122.6599 c 0,4.04083 -1.76355,10.41126 -4.22566,15.26434 -2.32412,4.58104 -4.22886,8.72015 -4.23276,9.19803 -0.0118,1.41185 18.20583,15.21563 20.08062,15.21563 0.94502,0 2.01708,-2.85711 2.38236,-6.34914 0.64487,-6.16487 0.67278,-6.12801 0.96228,1.26983 0.65684,16.78572 5.46854,48.18154 7.96916,51.99796 3.87732,5.91754 10.44632,7.96442 15.31732,4.77279 4.04454,-2.65007 5.98314,-7.92522 9.28801,-25.27369 4.25479,-22.33496 21.57979,-23.30829 24.41242,-1.37153 2.40118,18.5957 3.06198,21.18677 6.20449,24.32929 2.34808,2.34807 5.11203,3.15325 9.55626,2.78385 5.19513,-0.43183 6.77413,-1.52203 9.33558,-6.4456 2.57074,-4.94143 2.95247,-8.73853 2.29797,-22.85689 -0.94118,-20.30093 -4.13563,-29.26802 -13.1863,-37.01507 -7.85152,-6.72062 -16.42524,-9.54524 -28.97306,-9.54524 h -9.29597 l -1.17912,-15.61972 c -0.69806,-9.24676 -2.48533,-18.57252 -4.38049,-22.85689 -2.86904,-6.485951 -3.80237,-7.237164 -8.99152,-7.237164 -12.08073,0 -17.26501,10.501584 -19.6419,39.787914 l -1.37414,16.93103 -0.22746,-20.31723 c -0.31909,-28.49851 3.86234,-40.793809 15.54366,-45.705431 7.40343,-3.112923 13.73292,-0.310364 20.05646,8.880594 5.91347,8.594987 13.16322,27.614307 13.21778,34.676187 0.0281,3.65667 1.00956,4.83589 4.69171,5.63788 23.62442,5.1454 35.99309,13.40363 43.59741,29.10882 2.79362,5.76965 5.93353,10.50955 6.97757,10.53317 1.04403,0.0235 2.38511,-3.57611 2.9802,-7.99934 0.59507,-4.42323 3.35547,-12.0075 6.13419,-16.85393 21.9556,-38.29304 89.29207,-13.2737 95.87218,35.62199 l 1.10162,8.18615 6.09902,-1.14419 c 8.78328,-1.64773 8.99198,-2.02276 5.23002,-9.39687 -5.47454,-10.73097 -8.91769,-26.73649 -7.89119,-36.68223 2.40289,-23.28193 23.79937,-31.70217 55.28406,-21.75615 23.12602,7.3055 29.99874,5.83927 47.84973,-10.20828 7.14307,-6.42141 12.68555,-8.30601 20.07886,-6.82734 11.25531,2.25107 31.61956,20.9496 38.66396,35.50146 7.25126,14.97908 2.82224,27.61224 -11.45871,32.68438 l -8.37922,2.97605 -0.66558,18.7111 c -0.4916,13.81995 -1.47352,20.26013 -3.7563,24.63697 -5.2645,10.09362 -9.41933,13.54482 -16.30627,13.54482 -12.26086,0 -19.57506,-10.0284 -25.33679,-34.73884 -5.67319,-24.33076 -11.30949,-31.29216 -25.33563,-31.29216 -4.37525,0 -8.38231,0.4273 -8.90459,0.94957 -0.52228,0.52228 1.63643,5.91091 4.79713,11.97476 8.8336,16.94742 7.68172,32.2535 -3.34015,44.38263 -10.09512,11.10933 -30.64597,14.84156 -46.72712,8.48612 z m 26.02432,-15.66308 c 17.65409,-10.34599 19.99813,-27.03248 6.44749,-45.89724 -17.02938,-23.70773 -17.24059,-24.55 -6.15691,-24.55 6.36816,0 8.66258,-0.91339 12.87435,-5.12515 4.71459,-4.7146 4.9317,-5.42662 2.71015,-8.88879 -1.32828,-2.07001 -5.78844,-5.53227 -9.91143,-7.69394 -6.04711,-3.17043 -9.24673,-3.76361 -16.55,-3.06824 -27.92533,2.6589 -36.91513,34.22502 -15.49429,54.40542 2.96534,2.79363 7.62311,7.87657 10.35058,11.29544 l 4.95909,6.21611 -12.02578,-0.29026 c -11.63323,-0.28079 -12.18964,-0.10694 -17.04589,5.32625 -7.28981,8.15587 -4.70845,15.06307 7.83405,20.96238 8.96598,4.21711 22.10463,3.11212 32.00859,-2.69198 z M 152.9658,217.18407 c 23.06309,-7.85836 40.13377,-38.43619 32.33669,-57.92303 -3.41123,-8.52548 -9.35525,-12.17691 -19.73611,-12.12389 -7.48128,0.0383 -20.14673,4.83085 -25.45018,9.63039 -1.64635,1.48993 -2.99337,4.5345 -2.99337,6.76571 0,4.84102 8.24631,8.96326 17.93052,8.96326 5.56816,0 5.95493,0.2811 3.86385,2.80796 -2.88972,3.492 -14.66447,8.95673 -19.40621,9.00659 -4.16666,0.0439 -7.13943,-5.56236 -8.59995,-16.21807 -1.93809,-14.13991 4.68698,-21.47585 21.68992,-24.01722 8.84021,-1.32131 8.96396,-1.4153 4.84642,-3.6808 -5.70378,-3.13827 -16.60654,-2.91918 -23.12402,0.46465 -7.28814,3.78397 -12.43845,12.6309 -12.43845,21.36614 0,8.39024 2.07102,13.05732 8.20173,18.48278 l 4.49654,3.97926 -6.58646,-0.94839 c -32.003451,-4.60827 -32.789712,-46.65031 -1.0325,-55.20898 3.25922,-0.87838 14.39992,-2.31396 24.75709,-3.19021 23.39643,-1.97939 26.03599,-3.22091 26.03599,-12.24596 0,-14.843467 -8.80463,-21.866677 -27.41308,-21.866677 -20.07398,0 -48.27234,10.365857 -62.043936,22.807657 -11.154551,10.07748 -17.155518,30.75607 -13.900578,47.89975 2.623362,13.81724 9.767275,27.02286 20.336147,37.59173 17.815147,17.81517 38.954227,24.22526 58.229947,17.65735 z m 226.39049,-5.12826 c 12.99732,-7.07403 17.50709,-14.83555 18.26201,-31.42957 0.5305,-11.66164 0.0542,-14.40571 -3.90456,-22.49721 -7.63309,-15.60145 -22.9347,-26.26698 -37.68473,-26.26698 -7.81332,0 -20.36447,4.33516 -26.83102,9.26742 -14.35005,10.94532 -17.99398,33.78506 -8.37354,52.4842 11.88212,23.09499 36.01337,30.69825 58.53184,18.44214 z m -29.14621,-25.1957 c -10.01126,-5.43862 -9.0529,-22.9506 1.40195,-25.61814 7.60281,-1.93985 11.27549,-1.06696 15.34951,3.64818 6.38902,7.39447 4.91717,17.92277 -3.08403,22.06037 -5.86942,3.03518 -7.93919,3.02149 -13.66743,-0.0905 z m 11.64778,-5.09786 c 2.13443,-1.49501 3.28835,-3.63785 2.73524,-5.07933 -1.41604,-3.69005 -2.90837,-3.07269 -6.25103,2.58601 -3.30918,5.60195 -2.1232,6.44302 3.51579,2.49332 z m 182.31955,24.44403 c 1.93935,-4.84692 2.67627,-12.50671 2.67627,-27.81818 0,-20.78148 0.0628,-21.12963 3.8095,-21.13584 5.36535,-0.008 14.29052,-5.83377 15.68868,-10.23894 1.61206,-5.07914 -3.48897,-11.6831 -12.63708,-16.36035 -4.03262,-2.06179 -8.69729,-5.99372 -10.36594,-8.73761 -1.66866,-2.74389 -4.57284,-5.47732 -6.45371,-6.0743 -6.03047,-1.91398 -16.56136,2.29319 -25.21509,10.07363 -16.7963,15.10132 -15.93675,27.5611 2.15815,31.28376 l 5.07929,1.04499 0.19642,18.55497 c 0.10814,10.20526 1.07875,21.7522 2.15721,25.65987 4.19058,15.18429 17.46161,17.35576 22.90636,3.748 z"/><path d="m 445.57946,431.22382 c -8.07728,-4.92529 -13.70702,-18.23579 -16.1703,-38.23173 l -2.08568,-16.93103 -1.42641,8.32608 c -1.87832,10.96432 -6.83048,17.57898 -16.29505,21.76559 -22.43925,9.92595 -66.60402,-3.67426 -82.26273,-25.33218 -5.44611,-7.53267 -9.36043,-9.29747 -9.36043,-4.22023 0,7.29891 -5.557,20.88993 -10.82529,26.47597 -9.35841,9.92278 -19.12929,7.33143 -27.75686,-7.36145 -4.09979,-6.98209 -4.64554,-9.80387 -5.19262,-26.84944 l -0.61134,-19.04743 h -5.40059 -5.40056 l -1.97957,15.6612 c -2.19416,17.35889 -6.86001,32.64114 -12.29699,40.27668 -5.27714,7.41101 -12.66661,6.93173 -20.587,-1.33532 -12.62227,-13.17468 -15.63429,-25.66967 -14.63564,-60.71418 0.78274,-27.4682 2.97978,-35.362 11.58983,-41.64173 18.45762,-13.4621 72.72558,7.37938 86.41716,33.18827 2.27372,4.28597 4.89721,7.78981 5.83001,7.78634 0.9328,-0.004 3.06561,-3.33729 4.73957,-7.4084 4.28301,-10.41652 12.84325,-19.78613 23.4386,-25.65472 8.17401,-4.52743 10.58284,-5.02535 24.31092,-5.02535 12.39258,0 16.68451,0.71284 22.98483,3.81754 17.26495,8.50789 26.26675,19.73752 32.22731,40.20313 l 2.95867,10.15863 0.12058,-9.17341 c 0.29893,-22.73361 7.09114,-42.61039 16.38195,-47.94031 8.21067,-4.71023 22.55494,-6.74441 34.26309,-4.85888 23.50207,3.78491 42.97784,19.66976 49.32956,40.23424 4.10957,13.30526 4.2639,19.14639 0.81296,30.76696 -3.4677,11.67709 -10.1079,18.85219 -26.75469,28.90998 -15.44012,9.32871 -18.76126,12.46715 -26.29014,24.84378 -7.72374,12.69697 -18.86419,16.1463 -30.07319,9.3114 z m 12.41032,-21.30068 c 2.09059,-3.72484 4.28863,-9.99166 4.88448,-13.92629 1.17246,-7.74204 0.2255,-7.24062 18.10231,-9.58521 13.59359,-1.78282 30.8567,-14.4401 35.17087,-25.78722 7.24312,-19.05084 -6.91084,-42.21265 -33.13134,-54.2168 -20.25259,-9.27193 -38.13791,-4.81195 -45.08001,11.24141 -4.29252,9.92633 -4.57781,51.94474 -0.55791,82.17062 2.37109,17.82814 13.27587,23.17349 20.6116,10.10349 z m 6.53847,-55.40258 c -3.62242,-5.17176 -3.43251,-17.00446 0.32728,-20.39274 5.2422,-4.72421 11.13238,-5.16664 16.15776,-1.21369 3.72819,2.93261 4.58274,4.97967 4.58274,10.97799 0,5.94877 -0.86183,8.05112 -4.46108,10.88229 -5.93044,4.66489 -13.23973,4.55317 -16.6067,-0.25385 z m 15.14193,-4.70259 c 2.97438,-3.28667 2.95721,-3.38621 -0.58413,-3.38621 -2.51988,0 -3.64862,1.04757 -3.64862,3.38621 0,1.86242 0.26285,3.38621 0.58413,3.38621 0.32128,0 1.96315,-1.52379 3.64862,-3.38621 z m -235.80194,24.06899 c 1.00315,-21.16449 4.6044,-30.68419 12.90893,-34.12405 13.04164,-5.40203 18.19221,0.9206 20.41801,25.06441 1.76838,19.18188 5.09235,25.62513 13.21959,25.62513 10.95181,0 15.82951,-14.78062 12.67012,-38.3936 -4.18769,-31.29836 -17.14781,-41.20016 -57.44753,-43.891 -19.52029,-1.3034 -20.42823,-0.95218 -26.40547,10.21445 -3.11436,5.81827 -3.68572,9.64155 -3.68572,24.66327 0,19.20002 2.26664,27.59741 10.28774,38.11362 3.58565,4.70102 12.59908,10.81531 16.13886,10.94781 0.56652,0.0211 1.4195,-8.1778 1.89547,-18.22004 z m 156.14069,14.77196 c 8.29726,-4.05277 11.6979,-11.95867 11.52756,-26.79982 -0.19603,-17.07934 -4.99831,-29.87996 -14.93921,-39.82086 -23.14245,-23.14244 -61.93787,-12.885 -71.18394,18.82093 -6.93227,23.77163 6.65729,43.97075 33.32979,49.54041 10.62382,2.21843 35.29049,1.17794 41.2658,-1.74066 z M 355.99673,359.207 c -5.34641,-5.34639 -5.27142,-11.18958 0.22744,-17.72465 3.207,-3.81128 5.83201,-5.2092 9.78191,-5.2092 8.52906,0 12.92447,4.08941 12.92447,12.0247 0,8.53335 -5.87252,15.06494 -13.54482,15.06494 -3.29879,0 -6.76939,-1.53615 -9.389,-4.15579 z m -218.61697,46.83552 c -21.54229,-7.69069 -31.61246,-25.21364 -22.02495,-38.32534 1.93525,-2.64665 2.11874,-2.325 1.53348,2.68819 -2.68785,23.02329 47.26413,30.10471 66.79621,9.46928 7.36222,-7.77809 9.00478,-11.69962 9.00478,-21.49831 0,-13.35568 -4.8161,-21.19075 -25.44166,-41.38957 -10.21845,-10.00705 -18.57901,-19.31616 -18.57901,-20.68694 0,-2.1168 2.92234,-2.31761 19.3955,-1.33277 16.5652,0.99037 20.02416,0.74768 23.70344,-1.66308 4.63283,-3.03553 5.43983,-7.53215 2.41168,-13.4378 -13.19457,-25.73259 -52.51848,-25.96282 -68.32274,-0.40001 -4.25193,6.87736 -5.11761,10.03966 -5.08609,18.57941 0.0565,15.32804 5.99586,24.87761 26.53252,42.66071 9.13198,7.90758 16.60361,15.09735 16.60361,15.97732 0,0.87993 -2.01095,1.59988 -4.46879,1.59988 -5.66368,0 -25.65455,-15.90164 -33.70524,-26.81066 -20.76333,-28.13521 -11.03679,-65.28021 19.42819,-74.19493 32.23362,-9.43227 73.48645,18.38972 62.62224,42.23405 -3.97265,8.71904 -19.92209,12.33408 -35.42206,8.02863 l -5.91468,-1.64292 5.92586,5.16396 c 23.40199,20.39314 28.3166,25.4457 32.06255,32.96254 4.91187,9.85651 6.28624,22.50866 3.54919,32.6733 -2.65034,9.84263 -14.58233,22.4469 -25.93776,27.39917 -12.21506,5.32717 -32.69574,6.21942 -44.66627,1.94589 z m -9.34584,-47.22249 c 1.2222,-0.48911 2.68251,-0.42896 3.24512,0.13363 0.5626,0.5626 -0.4374,0.96273 -2.2222,0.88924 -1.97238,-0.0813 -2.37356,-0.48243 -1.02292,-1.02291 z m 9.20624,-1.74921 c 2.56082,-0.38795 6.75125,-0.38795 9.31207,0 2.56082,0.38791 0.4656,0.70532 -4.65603,0.70532 -5.12164,0 -7.21685,-0.31741 -4.65604,-0.70532 z" style="fill:#c5becb;fill-opacity:1;stroke:#2b2b2b;stroke-width:4.61465;stroke-dasharray:none;stroke-opacity:1" id="path765"/></svg>
