<svg xmlns="http://www.w3.org/2000/svg" xmlns:svg="http://www.w3.org/2000/svg" id="svg134" width="16" height="16" version="1.1" viewBox="0 0 16 16"><path id="path132" fill="#e0e0e0" d="m 14.999026,12.016599 a 1,1 0 0 1 -0.291316,0.691406 l -2,2 a 1,1 0 0 1 -1.414062,0 1,1 0 0 1 0,-1.414062 l 0.292968,-0.292969 H 3.0006784 V 4.4150363 l -0.292969,0.292969 a 1,1 0 0 1 -1.414062,0 1,1 0 0 1 0,-1.414062 l 2,-2 a 1,1 0 0 1 1.414062,0 l 2.0000002,2 a 1,1 0 0 1 0.2910157,0.720703 1,1 0 0 1 -0.2910157,0.693359 1,1 0 0 1 -1.4140622,0 l -0.292969,-0.292969 v 6.5859377 h 6.5859376 l -0.292968,-0.292969 a 1,1 0 0 1 0,-1.4140619 1,1 0 0 1 1.414062,0 l 2,1.9999999 a 1,1 0 0 1 0.291316,0.722656 z" style="fill:#fff;fill-opacity:1"/><rect style="fill:none;fill-opacity:1;stroke:#fff;stroke-width:.809572;stroke-linecap:round;stroke-linejoin:round;stroke-dasharray:none;stroke-opacity:1" id="rect587" width="3.19" height="3.19" x="4.538" y="8.302" ry="0"/></svg>