<svg xmlns="http://www.w3.org/2000/svg" xmlns:svg="http://www.w3.org/2000/svg" id="Layer_1" width="16" height="16" data-name="Layer 1" version="1.1" viewBox="0 0 16 16"><title id="title181">categories</title><metadata id="metadata348"/><path id="path132" fill="#e0e0e0" d="M 9.6269875,13.308963 A 0.60681043,0.60681043 0 0 1 9.450214,13.728515 l -1.2136209,1.213621 a 0.60681043,0.60681043 0 0 1 -0.8580676,0 0.60681043,0.60681043 0 0 1 0,-0.858068 L 7.5563016,13.906292 H 2.346265 V 8.696255 L 2.1684884,8.8740317 a 0.60681043,0.60681043 0 0 1 -0.8580676,0 0.60681043,0.60681043 0 0 1 0,-0.8580676 L 2.5240417,6.802343 a 0.60681043,0.60681043 0 0 1 0.8580675,0 l 1.213621,1.2136211 a 0.60681043,0.60681043 0 0 1 0.1765914,0.4373301 0.60681043,0.60681043 0 0 1 -0.1765914,0.4207375 0.60681043,0.60681043 0 0 1 -0.8580677,0 L 3.5598859,8.696255 v 3.996416 H 7.5563016 L 7.3785255,12.514894 a 0.60681043,0.60681043 0 0 1 0,-0.858067 0.60681043,0.60681043 0 0 1 0.8580676,0 l 1.2136209,1.21362 a 0.60681043,0.60681043 0 0 1 0.1767735,0.438516 z" style="fill:#fff;fill-opacity:1;stroke-width:.60681"/><rect style="fill:none;fill-opacity:1;stroke:#fff;stroke-width:.491257;stroke-linecap:round;stroke-linejoin:round;stroke-dasharray:none;stroke-opacity:1" id="rect587" width="1.936" height="1.936" x="3.279" y="11.055" ry="0"/><path id="path132-3" fill="#e0e0e0" d="m 14.29897,1.8695001 a 0.60681043,0.60681043 0 0 1 0.17167,0.4216661 l 1e-6,1.7163186 A 0.60681043,0.60681043 0 0 1 13.863895,4.6142305 0.60681043,0.60681043 0 0 1 13.257149,4.0074848 l 10e-7,-0.2514125 -3.6840524,3.6840519 -3.6840531,-3.6840532 3e-7,0.2514144 A 0.60681043,0.60681043 0 0 1 5.2822994,4.6142308 0.60681043,0.60681043 0 0 1 4.6755544,4.0074858 l -5e-7,-1.7163196 A 0.60681043,0.60681043 0 0 1 5.2822992,1.6844208 l 1.7163198,5e-7 a 0.60681043,0.60681043 0 0 1 0.4341079,0.18437 0.60681043,0.60681043 0 0 1 0.172637,0.4223749 0.60681043,0.60681043 0 0 1 -0.6067454,0.6067455 l -0.2514144,-2e-7 2.8258935,2.8258935 2.8258924,-2.8258923 -0.251414,-1.5e-6 A 0.60681043,0.60681043 0 0 1 11.540831,2.291167 0.60681043,0.60681043 0 0 1 12.147577,1.6844213 l 1.716317,-8e-7 a 0.60681043,0.60681043 0 0 1 0.435076,0.1850796 z" style="fill:#fff;fill-opacity:1;stroke-width:.60681"/><rect style="fill:none;fill-opacity:1;stroke:#fff;stroke-width:.491257;stroke-linecap:round;stroke-linejoin:round;stroke-dasharray:none;stroke-opacity:1" id="rect587-6" width="1.936" height="1.936" x="2.441" y="9.179" ry="0" transform="rotate(-45)"/></svg>