<svg xmlns="http://www.w3.org/2000/svg" xmlns:svg="http://www.w3.org/2000/svg" id="svg8" width="16" height="16" version="1.1" viewBox="0 0 4.233 4.233"><metadata id="metadata5"/><g id="layer1" transform="translate(0,-292.76665)"><path id="path846" clip-path="none" style="fill:#ff9600;stroke:none;stroke-width:.345475;stroke-linecap:round;stroke-linejoin:round;stroke-miterlimit:4;stroke-dasharray:none" d="m 2.0938636,293.66666 a 1.2168308,1.2168308 0 0 0 -1.1938966,1.21638 1.2168308,1.2168308 0 0 0 0.001245,0.0537 l 1.2694915,-1.2695 a 1.2168308,1.2168308 0 0 0 -0.054353,-6.1e-4 1.2168308,1.2168308 0 0 0 -0.022491,0 z m 0.3704765,0.0507 -1.51376827,1.51377 a 1.2168308,1.2168308 0 0 0 0.22803357,0.4267 l 1.7124389,-1.71306 a 1.2168308,1.2168308 0 0 0 -0.4267042,-0.22741 z m 0.5978856,0.40109 -1.7105646,1.71056 a 1.2168308,1.2168308 0 0 0 0.4304525,0.22366 l 1.5037726,-1.50377 a 1.2168308,1.2168308 0 0 0 -0.2236605,-0.4305 z m 0.2705165,0.72846 -1.2526231,1.25262 a 1.2168308,1.2168308 0 0 0 0.036235,6.2e-4 1.2168308,1.2168308 0 0 0 1.2170121,-1.21701 1.2168308,1.2168308 0 0 0 -6.247e-4,-0.0363 z"/></g></svg>