<svg xmlns="http://www.w3.org/2000/svg" xmlns:svg="http://www.w3.org/2000/svg" id="Layer_1" width="16" height="16" data-name="Layer 1" version="1.1" viewBox="0 0 16 16"><title id="title8121">height-arrow</title><path id="path8123" d="m 9.3124472,11.498744 h 0.9877608 a 0.49900662,0.49900662 0 0 1 0.427231,0.201654 0.54571725,0.54571725 0 0 1 0.02278,0.495589 0.19709621,0.19709621 0 0 1 -0.0319,0.05924 c -0.7735774,0.98662 -1.5471509,1.557401 -2.3207251,2.544022 l -0.012531,0.01367 a 0.49103163,0.49103163 0 0 1 -0.7712956,0 l -0.012524,-0.01367 C 6.8276679,13.812631 6.0540937,13.24185 5.2805195,12.25523 a 0.19709621,0.19709621 0 0 1 -0.0319,-0.05924 0.54571725,0.54571725 0 0 1 0.022786,-0.495589 0.50128516,0.50128516 0 0 1 0.4272317,-0.201654 H 6.6829788 V 4.5012594 H 5.698637 A 0.50128516,0.50128516 0 0 1 5.2714053,4.3041632 0.54571725,0.54571725 0 0 1 5.2486196,3.8085743 a 0.19709621,0.19709621 0 0 1 0.0319,-0.059243 C 6.0540937,2.7581541 6.8276679,2.1873725 7.6012419,1.2007523 l 0.012531,-0.013671 a 0.49103163,0.49103163 0 0 1 0.7712956,0 l 0.012531,0.013671 c 0.7735763,0.9866202 1.5471501,1.5574018 2.3207255,2.5440221 a 0.19709621,0.19709621 0 0 1 0.0319,0.059243 0.54571725,0.54571725 0 0 1 -0.02279,0.5001459 0.49900662,0.49900662 0 0 1 -0.427231,0.2016534 H 9.3124472 Z" style="fill:#fff;stroke-width:.113929"/><metadata id="metadata8247"/></svg>